<svg width="49" height="45" viewBox="0 0 49 45" fill="none" xmlns="http://www.w3.org/2000/svg">
<path fill-rule="evenodd" clip-rule="evenodd" d="M3.77785 21.9473C3.88572 18.7435 4.67582 15.6282 6.02649 12.8856C8.13914 8.59786 11.1274 6.13538 12.9439 4.86681C17.6483 1.5814 22.2994 1.26832 23.6064 1.16646C23.3442 1.15315 14.7381 0.170491 7.51486 7.14006C2.10989 12.3549 -1.34254 21.3703 2.63201 30.943C5.3741 37.5479 12.8252 44.6466 23.6059 44.0528C24.583 43.999 16.5387 44.451 10.0842 37.9924C5.84058 33.7463 3.90523 28.4458 3.77269 23.272L6.95543 23.272C7.35019 31.6803 14.6704 38.6284 23.4096 37.9947C23.5181 37.9872 23.6179 37.9808 23.7091 37.9756C21.9413 37.8668 17.4951 37.1231 13.9589 33.3227C10.9782 30.1194 9.90694 26.5019 9.80193 23.272L16.9357 23.272L16.9357 28.1107L48.1119 22.6093L16.9357 17.1086L16.9357 21.9473L9.81169 21.9473C9.92415 19.5549 10.5312 17.4581 11.2019 16.0252C15.052 7.79748 22.9472 7.31252 23.5967 7.2396C14.4639 6.5243 7.93428 13.5164 7.05354 20.6828C7.0019 21.1064 6.96748 21.5283 6.95084 21.9473L3.77785 21.9473ZM23.7091 37.9756C24.8326 37.9114 24.6519 38.0335 23.7091 37.9756V37.9756Z" fill="#EF6D73"/>
</svg>
