<svg width="49" height="45" viewBox="0 0 49 45" fill="none" xmlns="http://www.w3.org/2000/svg">
<path fill-rule="evenodd" clip-rule="evenodd" d="M45.2221 21.9473C45.1143 18.7435 44.3242 15.6282 42.9735 12.8856C40.8609 8.59786 37.8726 6.13538 36.0561 4.86681C31.3517 1.5814 26.7006 1.26832 25.3936 1.16646C25.6558 1.15315 34.2619 0.170491 41.4851 7.14006C46.8901 12.3549 50.3425 21.3703 46.368 30.943C43.6259 37.5479 36.1748 44.6466 25.3941 44.0528C24.417 43.999 32.4613 44.451 38.9158 37.9924C43.1594 33.7463 45.0948 28.4458 45.2273 23.272L42.0446 23.272C41.6498 31.6803 34.3296 38.6284 25.5904 37.9947C25.4819 37.9872 25.3821 37.9808 25.2909 37.9756C27.0587 37.8668 31.5049 37.1231 35.0411 33.3227C38.0218 30.1194 39.0931 26.5019 39.1981 23.272L32.0643 23.272L32.0643 28.1107L0.888123 22.6093L32.0643 17.1086L32.0643 21.9473L39.1883 21.9473C39.0759 19.5549 38.4688 17.4581 37.7981 16.0252C33.948 7.79748 26.0528 7.31252 25.4033 7.2396C34.5361 6.5243 41.0657 13.5164 41.9465 20.6828C41.9981 21.1064 42.0325 21.5283 42.0492 21.9473L45.2221 21.9473ZM25.2909 37.9756C24.1674 37.9114 24.3481 38.0335 25.2909 37.9756V37.9756Z" fill="#EF6D73"/>
</svg>
