<svg width="38" height="38" viewBox="0 0 38 38" fill="none" xmlns="http://www.w3.org/2000/svg">
<path d="M31.8773 5.01289C42.9366 15.1726 38.2763 33.6076 23.8144 37.37C9.10227 41.1941 -3.93945 27.0121 1.10434 12.6579C5.60541 -0.14658 21.8352 -4.21437 31.8773 5.01289ZM18.4034 9.79222C18.3741 10.0944 18.4229 10.429 18.4034 10.7377C18.5106 10.8709 18.7121 10.8254 18.8681 10.8124C21.6208 10.6142 23.7299 7.6576 23.5057 4.99339C22.7452 4.91866 21.845 5.30205 21.1853 5.68544C19.8171 6.4782 18.5594 8.18394 18.4034 9.79222ZM27.438 12.7846C25.9918 11.3193 23.7234 10.7669 21.7378 11.238C20.935 11.4297 20.2168 11.8196 19.4466 12.06C18.0362 12.4987 17.4057 11.8229 16.1577 11.433C14.3411 10.8644 12.5536 11.1893 11.0229 12.3005C5.85565 16.0531 8.59529 25.485 12.5146 29.2377C15.095 31.7069 16.59 29.0687 19.3199 29.2669C21.039 29.3904 22.1765 30.7582 24.0419 30.1019C25.6766 29.5236 27.438 26.6774 28.1335 25.1406C28.2537 24.8775 28.7055 23.841 28.7087 23.6299C28.7087 23.5909 28.6925 23.5291 28.6665 23.5064C28.5982 23.4447 28.1075 23.2432 27.9483 23.1392C24.6854 21.0371 24.4806 16.6932 27.3438 14.1329C27.529 13.9672 28.1107 13.7073 27.984 13.4409C27.9515 13.3694 27.5225 12.8788 27.438 12.7943V12.7846Z" fill="#EF6D73"/>
</svg>
