<svg width="38" height="38" viewBox="0 0 38 38" fill="none" xmlns="http://www.w3.org/2000/svg">
<path d="M31.1094 4.34596C39.1713 10.9998 40.3286 22.9625 33.683 31.0671C27.6398 38.4377 16.9375 40.193 8.8432 35.0676C-0.859545 28.9255 -2.97325 15.5508 4.47761 6.72943C11.1793 -1.20467 23.0799 -2.28198 31.1094 4.34596ZM22.1105 13.6704L8.35958 13.7028L2.74606 24.1283H14.8626L20.4869 13.7438V24.165H22.0004V23.1741C22.0004 23.1741 22.0587 23.1093 22.0717 23.1201C22.6222 24.4068 24.5913 24.6011 25.7485 24.1456C27.9659 23.2755 28.2271 19.5881 27.0785 17.8069C25.9947 16.1294 23.3865 15.7862 22.1883 17.5198C22.1667 17.5522 22.1947 17.5867 22.1084 17.5673V13.6726L22.1105 13.6704ZM35.3066 19.1131C35.2505 16.354 31.4678 15.5875 29.6629 17.2003C28.0954 18.6014 27.9961 21.7923 29.4103 23.3317C30.5222 24.5407 32.7244 24.7026 34.0414 23.7419C34.7798 23.2043 35.231 22.2068 35.3066 21.3109H33.7197C33.6031 22.5069 32.6402 23.3295 31.4182 22.9797C29.8788 22.5393 29.7838 19.9939 30.3127 18.7871C31.0015 17.2089 33.5038 17.2974 33.7197 19.1109H35.3066V19.1131Z" fill="#EF6D73"/>
<path d="M23.9414 17.6816C26.8453 17.5003 26.9921 23.3337 23.8593 23.0423C21.4671 22.8199 21.3289 17.8436 23.9414 17.6816Z" fill="#EF6D73"/>
</svg>
