<svg width="38" height="38" viewBox="0 0 38 38" fill="none" xmlns="http://www.w3.org/2000/svg">
<path d="M22.0722 37.9642C20.2936 37.7791 18.5258 37.1362 17.0934 36.1535C16.09 35.4652 15.0926 34.4841 14.4069 33.5111C13.0537 31.5905 12.3619 29.3742 12.3617 26.9603C12.3615 24.4474 13.1626 22.0877 14.6961 20.0835C14.9307 19.777 14.2543 20.445 11.4057 23.3342L7.81984 26.9709L3.95831 23.0501L8.22189 18.7698C10.6707 16.3118 12.5887 14.3556 12.7279 14.1746C13.3619 13.3504 13.7402 12.4408 13.9018 11.3524C13.9486 11.0365 13.9576 10.1123 13.9578 5.48874L13.958 0H19.3928L19.3924 5.62374C19.392 10.2771 19.3823 11.3374 19.3366 11.7684C19.1849 13.1983 18.8809 14.2738 18.2734 15.5305C17.7985 16.5128 17.2136 17.3705 16.3903 18.2919L16.1053 18.6108L16.4853 18.3084C19.3308 16.0445 23.2092 15.3779 26.694 16.554C28.358 17.1157 29.8586 18.0781 31.0605 19.3544C32.6888 21.0837 33.6964 23.2619 33.9943 25.6976C34.058 26.2181 34.0572 27.7179 33.9931 28.2442C33.828 29.5985 33.4861 30.7553 32.8986 31.9484C32.3658 33.0308 31.7232 33.9379 30.8895 34.7848C29.0908 36.6119 26.7976 37.7068 24.2249 37.9664C23.7721 38.0122 22.5197 38.0108 22.072 37.9642H22.0722ZM24.2765 32.8575C24.7332 32.7725 25.4193 32.5364 25.8577 32.3133C26.8714 31.7972 27.8027 30.8983 28.3738 29.8841C28.7097 29.2878 28.9888 28.4524 29.0868 27.7499C29.146 27.3268 29.1115 26.2 29.0276 25.8134C28.9209 25.3206 28.7117 24.7386 28.4736 24.2728C26.9975 21.3825 23.4244 20.2107 20.5526 21.6749C19.1804 22.3745 18.122 23.5917 17.6079 25.0609C17.0841 26.5579 17.2007 28.2219 17.9306 29.6707C18.8383 31.4721 20.5417 32.6737 22.5472 32.927C22.8362 32.9636 23.9467 32.919 24.2765 32.8575Z" fill="#EF6D73"/>
</svg>
