<svg width="38" height="38" viewBox="0 0 38 38" fill="none" xmlns="http://www.w3.org/2000/svg">
<path d="M8.89783 0.000244141C9.85672 0.605502 10.2824 1.88385 10.5934 2.94096C11.0358 4.4468 11.3144 6.1457 11.401 7.70684C11.6065 7.6651 11.5794 7.49396 11.6076 7.3416C11.8549 6.03091 12.0907 4.06278 12.8336 2.94305C14.0304 1.1398 14.863 4.00329 15.1228 4.97692C15.7509 7.33534 15.9826 9.95778 16.0911 12.3924C16.2831 12.36 16.2664 12.1784 16.3123 12.0417C16.7015 10.9011 17.4131 7.52631 19.0575 7.59414C20.584 7.6578 21.3196 10.9116 21.7036 12.0417C21.7495 12.1784 21.7339 12.359 21.9248 12.3924C22.049 9.81272 22.2608 6.95445 23.0204 4.47915C23.1998 3.89268 23.8092 1.93394 24.67 2.40875C25.7531 3.00462 26.1923 6.27927 26.4104 7.44596C26.4417 7.61605 26.3426 7.62545 26.6149 7.60249C26.6911 6.03404 26.9937 4.36645 27.4476 2.8627C27.7606 1.82332 28.1373 0.564803 29.117 0.00128769H29.6377C31.1924 1.32451 31.4438 3.72049 31.8278 5.62392L32.4017 3.64744C33.4023 1.2285 34.1348 3.12567 34.5062 4.56159C35.5517 8.59282 35.5893 16.6542 34.4029 20.6427C34.2339 21.2093 33.684 22.9698 32.8649 22.1057L32.1408 20.5174C31.9812 22.7214 30.222 32.4024 27.6302 25.9084L26.93 23.4331C26.7245 25.708 26.545 28.1155 25.9618 30.3278C25.3785 32.5401 24.3392 34.6544 23.1299 31.2378C22.9077 30.6096 22.8242 29.9542 22.6562 29.3156C22.6187 29.1716 22.6594 28.991 22.4486 28.9514C22.2702 31.1314 21.8987 33.6046 21.0682 35.6437C19.6898 39.0289 18.0548 38.5979 16.8444 35.436C16.0942 33.4773 15.729 31.1376 15.5683 29.0568C15.2522 29.0046 15.4024 29.1382 15.3586 29.3104C15.152 30.1097 14.6272 33.0828 13.5441 33.0129C12.8346 32.967 12.387 31.4883 12.2065 30.907C11.4761 28.5528 11.3018 25.8823 11.0869 23.4341L9.92246 27.0073C8.47108 29.6224 7.31289 27.0834 6.8131 25.4659C6.31331 23.8484 6.08897 22.1725 5.87612 20.5185L5.34085 21.8041C4.40074 23.3131 3.72774 21.1394 3.50966 20.3317C2.44643 16.3912 2.40156 7.8519 3.66096 3.98555C4.82853 0.404097 5.61526 3.91981 6.0128 5.3359C6.04306 5.44339 6.03889 5.65105 6.1881 5.62601C6.5272 3.72153 6.82666 1.3099 8.37821 0.00337478H8.89887L8.89783 0.000244141Z" fill="#EF6D73"/>
<path d="M36.901 4.99656C37.0523 4.98404 37.1629 5.13953 37.2474 5.2418C38.2753 6.48675 38.1491 11.8203 37.4749 13.2792C37.3706 13.5057 37.262 13.7905 36.9813 13.8375C36.3698 13.8918 36.1037 12.5341 36.0244 12.0854C35.7844 10.7204 35.7374 9.11649 35.8929 7.74109C35.9534 7.2068 36.2373 5.05083 36.901 4.99656Z" fill="#EF6D73"/>
<path d="M1.36353 5.11655C1.50754 5.23969 1.74339 5.8679 1.80495 6.08079C2.27559 7.70455 2.33925 11.6711 1.6526 13.2061C1.33953 13.9053 0.986813 14.1641 0.572525 13.3512C-0.208049 11.8203 -0.179873 7.01476 0.592352 5.4797C0.750972 5.16455 0.982639 4.78888 1.36249 5.11551L1.36353 5.11655Z" fill="#EF6D73"/>
</svg>
