<svg width="38" height="38" viewBox="0 0 38 38" fill="none" xmlns="http://www.w3.org/2000/svg">
<g clip-path="url(#clip0_112_299)">
<path d="M17.8666 37.9867C17.7968 37.9801 17.5546 37.9594 17.3283 37.9408C15.2287 37.7679 12.9944 37.1676 10.989 36.2376C10.2168 35.8795 9.89317 35.6975 9.91728 35.6348C9.9359 35.5864 10.8534 33.943 11.1114 33.4964L11.2347 33.2829L11.7165 33.5246C12.9954 34.1664 14.331 34.6367 15.6623 34.9139C19.2453 35.6601 22.9034 35.2068 26.1633 33.6128C27.7902 32.8173 29.2038 31.8063 30.5034 30.5085C31.8199 29.1942 32.7679 27.8837 33.5924 26.2383C34.471 24.4848 34.9956 22.6958 35.2228 20.6791C35.2902 20.0801 35.3164 18.5022 35.2697 17.8591C35.1655 16.4234 34.9084 15.136 34.4571 13.79C33.7044 11.5452 32.4034 9.3975 30.7919 7.73928L30.4155 7.35209L31.0444 6.67972C31.3902 6.30987 31.8011 5.86735 31.9576 5.6965L32.2419 5.38573L32.3648 5.50396C32.4325 5.56901 32.6656 5.8132 32.8832 6.04653C35.5364 8.89441 37.2224 12.3981 37.797 16.2582C37.9463 17.2607 37.9743 17.7031 37.9728 19.0321C37.9711 20.6289 37.8976 21.3977 37.6106 22.8205C36.3494 29.074 31.9466 34.3238 25.9817 36.6866C24.3337 37.3393 22.749 37.7238 20.8591 37.9297C20.428 37.9768 18.2063 38.019 17.8666 37.9867ZM17.9933 34.8774C16.3972 34.7755 14.5738 34.3593 13.081 33.7561C12.6113 33.5662 11.4734 33.022 11.4429 32.9726C11.4282 32.9489 12.6517 30.7048 12.7419 30.59C12.7476 30.5829 12.9767 30.6853 13.251 30.8177C15.8403 32.0672 18.6404 32.4479 21.4504 31.9326C23.2554 31.6015 25.1191 30.8101 26.6383 29.7298C27.516 29.1055 28.6493 28.038 29.2953 27.227C29.6603 26.7688 30.2466 25.9043 30.5128 25.4321C31.3764 23.8996 31.9127 22.2169 32.1382 20.3319C32.203 19.789 32.1933 18.0724 32.1219 17.4945C31.7607 14.5691 30.5827 12.052 28.5615 9.88672L28.3107 9.61794L29.1497 8.71375C29.6113 8.21646 30.0294 7.76718 30.0789 7.71515L30.1688 7.62089L30.41 7.8578C30.5428 7.98825 30.8029 8.26731 30.9882 8.47815C33.1896 10.9831 34.5068 14.005 34.8767 17.3994C34.9552 18.12 34.9551 19.8251 34.8764 20.5538C34.6641 22.5179 34.1878 24.1954 33.3547 25.9114C33.1939 26.2426 32.9724 26.6706 32.8627 26.8625C32.5881 27.3422 31.9388 28.3128 31.6132 28.7299C29.69 31.1939 27.1012 33.0476 24.1925 34.0437C22.889 34.4901 21.578 34.7599 20.1957 34.8662C19.8123 34.8956 18.3931 34.9028 17.9933 34.8774ZM5.76992 32.6365C5.53276 32.4247 4.77736 31.6054 4.39195 31.1422C0.509156 26.4772 -0.906301 20.2499 0.576248 14.3561C1.36416 11.2238 2.92292 8.38355 5.17319 5.98029C6.66402 4.3881 8.55528 2.98036 10.5199 2.00023C14.3725 0.0782852 18.791 -0.481907 22.9818 0.420414C24.6707 0.784012 26.4238 1.4235 27.869 2.20316C28.0803 2.31707 28.2565 2.41366 28.2609 2.41763C28.2698 2.42621 27.0367 4.69091 27.0024 4.72891C26.9894 4.74328 26.6652 4.59864 26.2819 4.40758C23.3702 2.95707 20.2121 2.41599 16.9958 2.81657C11.9507 3.44482 7.43457 6.46178 4.89727 10.8987C2.81947 14.5322 2.2246 18.792 3.22375 22.8839C3.38436 23.5418 3.75529 24.6612 4.01179 25.2615C4.83626 27.1922 5.93699 28.8501 7.36001 30.3043L7.84295 30.7979L6.92263 31.7943C6.41647 32.3422 5.99277 32.7942 5.98103 32.7984C5.96933 32.8028 5.87433 32.7298 5.76992 32.6365ZM18.0883 31.7718C16.9199 31.6775 15.6399 31.3962 14.5769 30.9999C13.8218 30.7182 12.9274 30.2917 12.9528 30.2251C12.9703 30.1797 14.2403 27.9144 14.2586 27.8959C14.266 27.8885 14.4397 27.9624 14.6444 28.0604C16.6692 29.0279 18.8743 29.3018 21.0643 28.858C22.391 28.589 23.7454 27.9954 24.8811 27.1854C25.9398 26.4303 26.8825 25.4273 27.5791 24.3154C29.1411 21.821 29.5328 18.7348 28.6418 15.9418C28.2 14.5567 27.5233 13.371 26.5378 12.2561L26.2089 11.8839L27.136 10.884L28.0633 9.88427L28.3116 10.1466C32.0854 14.1333 32.9233 20.0361 30.4025 24.8763C29.7703 26.09 29.0923 27.0086 28.0809 28.0217C27.0272 29.0769 26.0147 29.8132 24.7346 30.4547C23.4401 31.1036 22.0309 31.5249 20.5177 31.7156C20.1311 31.7643 18.4721 31.8027 18.0883 31.7718ZM7.66367 30.1039C6.49428 28.9193 5.62049 27.7065 4.84795 26.1967C3.34543 23.2596 2.80233 19.9902 3.27091 16.704C4.30337 9.46471 10.2222 3.81581 17.5046 3.11972C20.0117 2.87997 22.5381 3.23693 24.8808 4.16191C25.3813 4.35956 26.822 5.05815 26.8063 5.09564C26.7811 5.15575 25.5329 7.43249 25.5121 7.45625C25.4991 7.47112 25.2329 7.35539 24.9205 7.199C23.5076 6.4915 22.0618 6.06073 20.4633 5.87086C19.8088 5.79308 18.2126 5.79257 17.5974 5.86984C15.6933 6.10892 14.0552 6.64227 12.5116 7.5251C12.0215 7.80548 11.2573 8.32691 10.7891 8.70057C10.24 9.1386 9.18827 10.1915 8.74971 10.742C6.20337 13.938 5.27317 18.0809 6.21574 22.0279C6.77139 24.3555 7.91633 26.4216 9.64562 28.2173L9.94316 28.5263L9.80349 28.6772C8.74443 29.8211 8.09033 30.524 8.08488 30.524C8.08125 30.524 7.89159 30.335 7.66367 30.1039ZM18.2987 28.6828C17.0622 28.5879 15.7482 28.2222 14.6417 27.6651C14.4986 27.5931 14.4614 27.5601 14.4771 27.5184C14.4882 27.4889 14.7827 26.9552 15.1317 26.3324L15.7664 25.2001L15.9846 25.3102C17.0078 25.826 18.3444 26.0846 19.5116 25.9926C21.3097 25.851 22.8448 25.1342 24.0733 23.8627C25.0973 22.8026 25.7044 21.5963 25.9776 20.0782C26.0579 19.6323 26.0585 18.348 25.9787 17.8921C25.8191 16.9806 25.5243 16.1614 25.0897 15.4222C24.8857 15.0751 24.492 14.537 24.2709 14.3029L24.1158 14.1386L25.0231 13.1616C25.5222 12.6242 25.9419 12.1803 25.9561 12.1751C25.9701 12.1699 26.1024 12.3014 26.2502 12.4671C27.6722 14.063 28.4974 15.9421 28.7139 18.0777C28.7624 18.5561 28.7359 19.8588 28.6684 20.3053C28.2811 22.868 27.0095 25.0754 25.0231 26.6333C24.2702 27.2239 23.1937 27.8231 22.3314 28.132C21.0544 28.5895 19.6254 28.7847 18.2986 28.6828H18.2987ZM9.78103 27.8373C9.57224 27.615 9.31262 27.3261 9.20411 27.1953C6.78393 24.2809 5.78791 20.6234 6.3894 16.8605C6.74238 14.6534 7.76973 12.4417 9.25574 10.69C9.57456 10.3144 10.2513 9.63015 10.6268 9.30387C12.5276 7.65276 14.7854 6.62557 17.2852 6.27487C18.8675 6.05278 20.5038 6.13863 22.0783 6.52603C23.0275 6.75948 23.7897 7.04032 24.7145 7.4967C25.2992 7.78548 25.3226 7.80053 25.2877 7.86706C25.2268 7.98279 24.02 10.1868 24.0139 10.1933C24.0108 10.1966 23.8283 10.1077 23.6083 9.9954C22.519 9.43994 21.3585 9.08957 20.1466 8.95021C19.6274 8.89044 18.5703 8.88237 18.0566 8.93402C14.6493 9.27699 11.697 11.2729 10.0833 14.3244C8.89736 16.5671 8.62735 19.3185 9.34927 21.806C9.78103 23.2942 10.6346 24.7698 11.7368 25.9343C11.9997 26.2121 12.0246 26.2485 11.9868 26.3015C11.9096 26.4099 10.2072 28.2415 10.1838 28.2415C10.171 28.2415 9.98969 28.0595 9.78103 27.8373ZM11.9918 25.6837C9.59994 23.1791 8.71973 19.5632 9.6946 16.2468C10.5833 13.2229 12.8756 10.816 15.8572 9.77594C16.9552 9.39306 18.0561 9.22876 19.3071 9.26127C20.3323 9.28802 21.1271 9.42641 22.0857 9.74542C22.8104 9.98648 23.8312 10.4584 23.8132 10.5441C23.8071 10.5734 22.5752 12.8339 22.5495 12.8631C22.5432 12.87 22.3634 12.7896 22.1499 12.6844C21.2012 12.2166 20.3114 11.9913 19.2758 11.9559C17.322 11.8896 15.5328 12.5804 14.1387 13.9391C13.4874 14.5738 13.1136 15.089 12.7204 15.8936C12.3676 16.6158 12.1638 17.2807 12.0498 18.081C11.9837 18.5457 11.9999 19.5878 12.0807 20.0624C12.3241 21.4926 12.8874 22.66 13.8479 23.7246L14.1105 24.0157L13.8062 24.3453C12.8685 25.3609 12.3568 25.916 12.3245 25.9525C12.2954 25.9852 12.2266 25.9297 11.9918 25.6837ZM18.5359 24.3422C16.517 24.148 14.7626 22.8348 14.0229 20.9641C13.4499 19.5152 13.5307 17.8934 14.2446 16.5118C14.5084 16.0009 14.7989 15.6058 15.2224 15.1809C16.0219 14.3792 16.9405 13.8944 18.0883 13.6685C18.5364 13.5803 19.5556 13.5886 20.0305 13.6844C20.788 13.8369 21.5365 14.1535 22.1258 14.57C22.5117 14.843 23.1594 15.4914 23.432 15.8777C23.6763 16.224 23.9773 16.8126 24.1193 17.2214C24.4315 18.1215 24.4892 19.2289 24.2727 20.1734C23.7259 22.5597 21.6706 24.2578 19.2124 24.3537C18.9947 24.3623 18.6903 24.357 18.5359 24.3422ZM19.8957 24.0563C21.6468 23.7566 23.1551 22.5404 23.8054 20.9035C24.0809 20.2105 24.1671 19.7424 24.1648 18.9528C24.1635 18.4444 24.1521 18.3132 24.0794 17.9669C23.7937 16.6051 23.0266 15.4584 21.8883 14.6909C20.5861 13.8133 18.92 13.583 17.4233 14.0735C17.0245 14.2043 16.37 14.5382 16.0156 14.7918C15.6329 15.0655 15.1081 15.5908 14.834 15.9745C14.5911 16.3145 14.2548 16.9753 14.133 17.3519C13.7821 18.438 13.7861 19.5216 14.1451 20.6046C14.6295 22.0655 15.7428 23.2312 17.1874 23.7897C17.7922 24.0237 18.2886 24.1126 19.0112 24.1171C19.3912 24.1194 19.6186 24.1039 19.8957 24.0563ZM18.6493 19.727C18.1224 19.4642 18.028 18.76 18.4656 18.3562C18.9743 17.8868 19.7964 18.2082 19.8682 18.9044C19.9338 19.5413 19.2296 20.0165 18.6493 19.727Z" fill="#EF6D73"/>
</g>
<defs>
<clipPath id="clip0_112_299">
<rect width="38" height="38" fill="white"/>
</clipPath>
</defs>
</svg>
