<svg width="33" height="32" viewBox="0 0 33 32" fill="none" xmlns="http://www.w3.org/2000/svg">
<path d="M7.37466 0.00993052L25.4131 0.000114001C27.843 -0.00970252 30.093 0.612665 31.5869 2.5583C32.6745 3.9758 32.8504 5.32067 32.9171 7.04248C33.1496 12.8912 32.8039 18.8459 32.9474 24.7083C32.8828 26.7207 32.5977 28.4366 31.1462 29.9582C29.5997 31.5779 27.6914 31.9352 25.498 32H7.50809C5.29447 31.9332 3.36792 31.5975 1.80323 29.9582C0.365903 28.4523 0.06469 26.7599 0 24.7633V7.29182C0.0545822 5.54841 0.262803 3.99151 1.36253 2.56026C2.80391 0.68138 5.01348 -0.0116658 7.37466 0.00993052ZM11.3491 5.5916C8.39151 5.84487 5.98181 8.22243 5.7473 11.0947V20.9014C5.98383 23.8228 8.46833 26.22 11.4805 26.4144H21.5195C24.5256 26.1867 27 23.7718 27.1981 20.8465V11.0692C26.9474 8.17727 24.5013 5.80953 21.5216 5.58179L11.347 5.5916H11.3491Z" fill="#EF6D73"/>
<path d="M11.4643 7.56475L21.38 7.55493C23.4198 7.67862 25.0714 9.29049 25.225 11.2636V20.8445C25.0674 22.8412 23.3814 24.4472 21.3214 24.5532H11.626C9.55591 24.4492 7.85982 22.8255 7.72235 20.817V11.3166C7.8396 9.36117 9.45281 7.73163 11.4622 7.56279L11.4643 7.56475ZM22.0734 9.17466C20.4016 9.36313 20.6341 11.8978 22.4333 11.6916C24.0323 11.5071 23.814 8.97833 22.0734 9.17466ZM16.0674 10.6471C11.7958 10.922 9.43462 15.7026 11.8868 19.1345C14.2378 22.427 19.3686 22.1835 21.3578 18.6731C23.5007 14.8918 20.4703 10.3625 16.0674 10.6452V10.6471Z" fill="#EF6D73"/>
<path d="M16.0977 12.5632C19.221 12.2942 21.2446 15.6711 19.3747 18.1351C17.9393 20.0297 14.9879 20.0179 13.5627 18.1194C11.9393 15.9597 13.3544 12.7988 16.0977 12.5632Z" fill="#EF6D73"/>
</svg>
