<svg width="44" height="24" viewBox="0 0 44 24" fill="none" xmlns="http://www.w3.org/2000/svg">
<path d="M20.9937 2.28103C21.0468 2.03619 21.3895 1.92967 21.6051 2.0664C21.7193 2.13794 21.6823 2.2715 21.782 2.30488C21.7128 1.91695 21.7949 1.18561 22.3628 1.46384C22.4641 1.51312 22.4368 1.61487 22.5204 1.62282C22.485 1.24284 22.625 0.901017 23.0754 1.00277C23.2057 1.03298 23.2202 1.13473 23.3087 1.18402C23.262 0.932814 23.4068 0.635507 23.6851 0.614838C23.7607 0.610068 23.8508 0.664124 23.9168 0.651405C23.9506 0.645046 23.9843 0.489237 24.1581 0.435181C25.8971 -0.108558 27.8839 -0.146715 29.6567 0.342968C33.3905 1.3748 36.2122 4.70401 36.5211 8.54199C39.8157 7.20808 43.5286 9.31626 43.9598 12.8108C44.3298 15.8125 42.1049 18.5264 39.0628 18.7761C34.1337 18.7093 29.195 18.8556 24.2707 18.7776C24.0246 18.7745 24.1002 18.7347 23.8251 18.7697C23.6015 18.7983 23.4116 18.7745 23.3569 18.5296C23.0722 18.8333 22.7585 18.8874 22.5445 18.4803C22.3418 18.8905 21.9027 18.8683 21.7563 18.4311C21.6887 18.6966 21.4329 18.8667 21.1707 18.7188C20.9085 18.571 21.0307 18.2721 20.968 18.0415C20.9053 18.0415 21.116 18.9637 20.4355 18.7633C20.3712 18.7443 20.2039 18.5487 20.2039 18.5058V17.7013H20.154V18.5535C20.154 18.8524 19.4639 18.7983 19.4639 18.6028V17.8476L19.3931 18.5328C19.1469 19.0273 18.5823 18.8253 18.6756 18.2864L18.5485 18.6234C18.3554 18.9478 17.8873 18.7681 17.8873 18.5535V15.7521C17.8004 15.741 17.8407 15.8618 17.8374 15.9222C17.8004 16.8126 17.8905 17.7061 17.7779 18.5916C17.6798 18.7999 17.379 18.8778 17.21 18.7109C17.1988 18.6997 17.0974 18.5169 17.0974 18.5058V14.4373C17.0106 14.4261 17.0508 14.547 17.0476 14.6074C17.0057 15.5963 17.0862 16.5932 17.0492 17.5821C17.046 17.6854 17.0041 17.7776 16.9977 17.873C16.9816 18.1608 17.128 18.8874 16.6389 18.8158C16.2078 18.7522 16.3719 17.8698 16.359 17.5296C16.3542 17.4135 16.3092 17.307 16.3059 17.1925C16.2754 16.1146 16.3333 15.0287 16.3059 13.9508C16.2207 13.9396 16.2593 14.0621 16.2577 14.1209C16.2191 15.0446 16.2818 15.9763 16.2593 16.9C16.2561 17.0145 16.2094 17.121 16.2062 17.2371C16.1982 17.5185 16.2641 18.4485 16.1821 18.6266C16.0566 18.9001 15.648 18.8556 15.5772 18.5439L15.5161 10.0746C15.7445 8.14452 15.3874 5.995 15.5643 4.08078C15.6126 3.56725 16.1628 3.6372 16.2094 3.9838C16.3188 4.79305 16.1933 6.04269 16.2046 6.91236C16.2062 7.03955 16.2561 7.15879 16.2577 7.29711C16.2834 9.43232 16.2336 11.5707 16.2561 13.7059C16.3413 13.7171 16.3027 13.5946 16.3043 13.5358C16.3976 11.3004 16.2368 9.00305 16.3027 6.75973C16.4636 5.93776 16.2577 4.99178 16.3542 4.17935C16.4057 3.73896 16.9414 3.80255 16.9945 4.08396C17.0636 4.44327 16.9816 5.13646 16.9945 5.54665C16.9977 5.67543 17.046 5.79308 17.0476 5.9314C17.0942 8.12544 16.9526 10.3767 17.046 12.5612C17.0492 12.6216 17.009 12.7425 17.0958 12.7313V4.37491C17.0958 4.35742 17.1956 4.2191 17.2068 4.16822C17.9484 3.90748 17.7554 4.50528 17.7844 4.96158C17.7924 5.07605 17.8326 5.18416 17.8374 5.29863C17.8986 6.85989 17.7699 8.46726 17.8358 10.0269C17.839 10.0874 17.7988 10.2082 17.8857 10.1971V4.66745C17.8857 4.53867 18.1592 4.38763 18.2943 4.4083C18.6563 4.46394 18.645 5.00768 18.6257 5.27637L18.7383 4.80418C18.9314 4.64201 19.2242 4.63247 19.3432 4.88367L19.4639 5.27637V3.78983C19.4639 3.56566 20.154 3.56566 20.154 3.78983V5.56891H20.2039V2.9615C20.2039 2.89473 20.3856 2.71189 20.4757 2.6944C20.6028 2.67056 20.9423 2.7262 20.9423 2.86293V3.91066H20.9921C21.0613 3.44801 20.8988 2.70553 20.9921 2.27785L20.9937 2.28103Z" fill="#EF6D73"/>
<path d="M15.0158 3.67865C15.212 3.63572 15.3616 3.69136 15.4228 3.88851C15.4372 5.00938 15.4083 6.13024 15.4228 7.25111C15.4646 10.5104 15.5112 13.7808 15.4228 17.04C15.4147 17.3326 15.4887 18.5822 15.3504 18.7221C15.2265 18.8477 14.9385 18.8398 14.8581 18.6744C14.8291 18.6156 14.7921 18.3453 14.7841 18.2595C14.6377 16.4724 14.7873 14.3261 14.7857 12.5136C14.7857 9.876 14.6297 6.97606 14.7809 4.37183C14.7873 4.26849 14.8211 3.85671 14.8404 3.7963C14.8629 3.72952 14.9514 3.69136 15.0158 3.67706V3.67865Z" fill="#EF6D73"/>
<path d="M14.2758 3.6769C14.4994 3.63715 14.6104 3.78501 14.6345 3.98533C14.805 5.44644 14.464 7.17941 14.686 8.66118C14.6956 11.3099 14.686 13.9618 14.6329 16.6042C14.62 17.1941 14.7021 17.9461 14.6361 18.5073C14.6039 18.7728 14.3594 18.908 14.1455 18.7474C13.9685 18.6154 14.0554 17.6997 14.0457 17.4326C13.9106 13.7822 13.9846 10.0762 14.0457 6.42421C14.0586 5.68174 13.9476 4.62606 14.0409 3.93446C14.0586 3.80091 14.1358 3.70074 14.2774 3.6769H14.2758Z" fill="#EF6D73"/>
<path d="M13.7834 18.7125C13.6033 18.9001 13.3217 18.7809 13.2638 18.544C13.1319 13.7282 13.2638 8.90453 13.2526 4.08242C13.2703 3.74219 13.621 3.63884 13.8188 3.91389C13.8333 7.95855 13.9604 12.0223 13.8961 16.0717C13.8848 16.7919 13.9186 17.827 13.8446 18.5058C13.8365 18.5726 13.8301 18.6632 13.7818 18.7125H13.7834Z" fill="#EF6D73"/>
<path d="M12.6976 3.96794C12.9115 3.9123 13.0354 4.08877 13.0563 4.27638C13.2365 5.8122 12.8794 7.63739 13.1078 9.19547C13.1239 11.5994 13.1014 14.0096 13.0547 16.4072C13.0418 17.0558 13.1303 17.8889 13.0579 18.5058C13.037 18.6807 12.9743 18.792 12.7861 18.8174C12.7233 18.8174 12.63 18.7682 12.5866 18.7252C12.5142 18.6537 12.4724 18.0813 12.4643 17.9207C12.3533 15.7283 12.4643 13.4373 12.4691 11.2464C12.474 9.05556 12.4096 7.04436 12.5174 4.96003C12.5303 4.71519 12.4112 4.04267 12.6992 3.96635L12.6976 3.96794Z" fill="#EF6D73"/>
<path d="M11.9978 4.22383C12.141 4.23019 12.2745 4.43211 12.2697 4.56884C12.2745 8.40363 12.3324 12.2384 12.2665 16.0669C12.2536 16.8173 12.3437 17.7331 12.2681 18.4565C12.2391 18.7283 12.0219 18.9779 11.8015 18.722C11.66 18.5582 11.7372 17.4834 11.7275 17.1877C11.631 13.9428 11.6825 10.6962 11.7275 7.44652C11.7404 6.55142 11.623 5.37014 11.7243 4.51955C11.7436 4.36056 11.8112 4.21429 11.9978 4.22383Z" fill="#EF6D73"/>
<path d="M11.1194 4.60231C11.4026 4.51805 11.4573 4.79151 11.4782 5.00932C11.6246 6.4577 11.4637 8.33218 11.4782 9.83461C11.4943 11.76 11.5602 13.6996 11.5313 15.6329C11.5184 16.528 11.557 17.5201 11.4814 18.4104C11.4653 18.6012 11.4476 18.8 11.2079 18.8C11.0116 18.8 10.9634 18.6696 10.9409 18.5011C10.8556 17.8635 10.8958 16.7633 10.8846 16.0717C10.8202 12.3021 10.9392 8.5166 10.973 4.75335C11.0068 4.69452 11.0486 4.62298 11.1178 4.60231H11.1194Z" fill="#EF6D73"/>
<path d="M10.2588 18.7617C10.1478 18.6504 10.2089 18.0637 10.1993 17.8697C10.0111 14.2035 10.0963 10.437 10.1993 6.76442C10.2121 6.33038 10.1414 5.75325 10.1944 5.34783C10.2041 5.28106 10.2057 5.22064 10.2652 5.17454C10.3778 5.0855 10.587 5.11571 10.6304 5.26198C10.6561 5.34783 10.6851 5.79936 10.6915 5.93291C10.8637 9.12539 10.624 12.4737 10.7414 15.6821C10.5709 16.6265 10.817 17.7187 10.6401 18.652C10.6095 18.811 10.3682 18.873 10.2572 18.7617H10.2588Z" fill="#EF6D73"/>
<path d="M9.53965 5.77094C10.0078 5.61832 9.83726 6.58019 9.85013 6.86319C9.90804 8.16531 9.93861 9.5024 9.95309 10.8061C9.98044 13.4389 9.94344 16.067 9.8453 18.6935C9.73269 18.897 9.44956 18.8032 9.41095 18.6029C9.38843 17.3357 9.38039 16.0686 9.36269 14.8015C9.33212 12.6917 9.37556 10.5835 9.41256 8.47056C9.42543 7.70901 9.34017 6.81709 9.40773 6.07938C9.41739 5.97922 9.42704 5.8091 9.54126 5.77094H9.53965Z" fill="#EF6D73"/>
<path d="M15.3745 20.3818L16.0888 20.4311L17.5431 22.5743V20.3818H18.2831V23.9384H17.5929L16.0647 21.649V23.9384H15.3745V20.3818Z" fill="#EF6D73"/>
<path d="M19.1695 23.9384V20.3818H20.5739C22.329 20.3818 22.6845 23.1753 21.0259 23.8017C20.9197 23.8414 20.6141 23.94 20.524 23.94H19.1678L19.1695 23.9384ZM19.9095 23.2563C20.791 23.3152 21.3879 23.0099 21.3412 22.0608C21.2962 21.1641 20.6881 21.0623 19.9095 21.0639V23.2563Z" fill="#EF6D73"/>
<path d="M36.3264 23.9384V20.3818H37.6826C39.3781 20.3818 39.7755 22.8541 38.4805 23.6554C38.3486 23.7381 37.8161 23.9384 37.6826 23.9384H36.3264ZM37.0664 23.2563C37.8434 23.3215 38.4982 23.0099 38.4998 22.1593C38.503 21.2149 37.8981 21.0448 37.0664 21.0639V23.2563Z" fill="#EF6D73"/>
<path d="M8.80288 6.64856C8.91871 6.63902 9.04097 6.69149 9.06349 6.81232C9.11336 7.07783 9.05062 7.53889 9.06188 7.83779C9.18897 11.1543 9.24528 14.6075 9.0651 17.9224C9.05223 18.1657 9.18415 18.8334 8.84149 18.8223C8.66453 18.8159 8.63397 18.4995 8.6211 18.3596C8.50527 17.0845 8.57927 15.4756 8.57283 14.1687C8.5664 12.8618 8.60179 11.5343 8.6227 10.2258C8.63718 9.26232 8.55031 8.19551 8.61788 7.24953C8.62914 7.10326 8.65327 6.68513 8.80288 6.64856Z" fill="#EF6D73"/>
<path d="M10.3762 20.7396C11.2336 21.6092 11.0068 23.7588 9.61689 23.975C7.24886 24.3422 7.17647 20.5488 9.09245 20.3373C9.5445 20.288 10.0545 20.4121 10.3762 20.7396ZM9.09888 21.075C8.7514 21.1386 8.54709 21.5425 8.51814 21.8652C8.45218 22.5902 8.62431 23.4567 9.57024 23.2452C10.3135 23.0783 10.4631 20.8254 9.09888 21.075Z" fill="#EF6D73"/>
<path d="M30.054 20.3469C32.3352 20.0894 32.369 23.762 30.5286 23.9814C28.2185 24.258 28.1461 20.5616 30.054 20.3469ZM30.0524 21.0751C29.2352 21.242 29.2706 23.1578 30.0894 23.258C30.5447 23.3136 30.8793 23.1594 31.0193 22.7127C31.2396 22.0052 31.0241 20.8779 30.054 21.0767L30.0524 21.0751Z" fill="#EF6D73"/>
<path d="M6.38819 22.684C6.17584 22.4662 5.29909 22.4217 4.92426 22.1578C4.42073 21.8017 4.4336 20.9654 4.92426 20.6045C5.56614 20.1323 6.58606 20.2976 7.11694 20.87L6.62145 21.4058C6.41393 20.9463 5.02722 20.8668 5.33931 21.5043C5.48248 21.7985 6.84185 21.6951 7.14107 22.4519C7.3502 22.9798 7.14429 23.6396 6.59571 23.8669C6.04714 24.0943 5.20257 24.0259 4.72639 23.6682C4.19068 23.2643 4.54621 23.2612 4.90174 22.9225C5.29426 23.196 5.7624 23.4424 6.24984 23.2341C6.47345 23.1387 6.53297 22.8383 6.38497 22.6856L6.38819 22.684Z" fill="#EF6D73"/>
<path d="M32.5314 20.3817C32.681 20.4119 33.2119 20.307 33.2634 20.4612C33.331 21.1449 33.1974 21.9271 33.2698 22.598C33.3374 23.2181 34.0259 23.5488 34.486 23.0925C34.5327 23.0464 34.7 22.7395 34.7 22.695V20.3801H35.44V22.695C35.44 22.7618 35.3065 23.1688 35.2679 23.2546C34.8206 24.2276 33.1942 24.2451 32.7197 23.288C32.6859 23.2197 32.5314 22.7856 32.5314 22.7427V20.3801V20.3817Z" fill="#EF6D73"/>
<path d="M12.2681 20.3818V22.4519C12.2681 22.5902 12.4145 22.9749 12.5142 23.0862C12.8166 23.4201 13.3909 23.3358 13.621 22.9606C13.6403 22.9288 13.7481 22.6649 13.7481 22.6474V20.3818H14.4881V22.5981C14.4881 22.8684 14.2596 23.3931 14.0698 23.5982C13.5116 24.2023 12.2922 24.1006 11.8337 23.4185C11.771 23.3247 11.5795 22.8811 11.5795 22.7937V20.3818H12.2697H12.2681Z" fill="#EF6D73"/>
<path d="M8.01301 7.96334C8.06932 7.94744 8.12401 7.94903 8.17549 7.97924C8.34763 8.06509 8.26236 8.87911 8.27202 9.10329C8.39589 12.0144 8.42002 14.9556 8.27202 17.8699C8.25915 18.1131 8.38463 18.7873 8.09345 18.8111C7.75723 18.8397 7.89397 18.0686 7.8811 17.8222C7.74436 14.9397 7.76366 12.0398 7.8811 9.15257C7.89397 8.85368 7.82962 8.39579 7.8811 8.12869C7.89558 8.05555 7.9374 7.98401 8.01301 7.96334Z" fill="#EF6D73"/>
<path d="M24.9464 22.8731C25.2408 22.951 25.7362 23.0719 25.4805 23.4264C24.9126 24.215 23.6015 24.1721 23.0545 23.3883C22.6314 22.7857 22.6073 21.8079 22.9403 21.1577C23.4824 20.102 25.0461 20.032 25.6285 21.0861L25.0123 21.4025C24.7662 21.2674 24.7421 21.0941 24.4219 21.0623C23.1526 20.9367 23.2122 23.1196 24.1307 23.2499C24.5072 23.304 24.7791 23.2261 24.948 22.8716L24.9464 22.8731Z" fill="#EF6D73"/>
<path d="M7.15233 18.7617C7.09602 18.7045 7.09602 18.5852 7.08959 18.5073C6.93998 16.768 7.09441 14.8522 6.99146 13.0954C7.15394 12.0349 6.96732 10.7853 7.0912 9.73435C7.13302 9.37503 7.44672 9.37344 7.48855 9.68347C7.60759 10.577 7.43546 11.6565 7.58668 12.558L7.48694 18.6504C7.47407 18.7919 7.25207 18.8619 7.15394 18.7601L7.15233 18.7617Z" fill="#EF6D73"/>
<path d="M6.63592 9.23527C6.68097 9.28297 6.69062 9.37677 6.69705 9.44196C6.78553 10.2639 6.7244 11.2815 6.74371 12.1241C6.77106 13.3197 6.76945 14.4803 6.74371 15.6775C6.72279 16.6696 6.71797 17.6601 6.69705 18.6521C6.66166 18.8382 6.39783 18.889 6.35279 18.6521C6.32705 18.5122 6.30935 18.1418 6.2997 17.9733C6.22087 16.4088 6.23535 14.7585 6.25466 13.1988C6.27074 11.911 6.2804 10.6328 6.35118 9.34816L6.46379 9.21143L6.63592 9.23686V9.23527Z" fill="#EF6D73"/>
<path d="M5.84606 18.7618C5.7624 18.8508 5.57097 18.7793 5.56131 18.6505C5.51305 16.5026 5.43262 14.3674 5.46157 12.2163L5.60797 9.09532C5.72701 8.9411 5.91523 9.06988 5.9104 9.24318C5.98441 11.3466 5.99567 13.4309 5.95545 15.5296C5.93775 16.4755 6.00693 17.633 5.9088 18.5535C5.90236 18.6187 5.89271 18.7125 5.84766 18.7602L5.84606 18.7618Z" fill="#EF6D73"/>
<path d="M5.06265 18.7664H4.82939C4.8133 18.6806 4.78273 18.5947 4.77469 18.5057C4.61543 16.6646 4.76665 14.6598 4.67334 12.8028C4.84547 11.6819 4.64277 10.3559 4.77308 9.24621C4.81491 8.88212 5.07713 8.88212 5.12056 9.24621C5.22352 10.1254 5.14791 11.3083 5.16722 12.2209C5.20904 14.2575 5.27339 16.4738 5.12217 18.5057C5.11574 18.5963 5.10608 18.6837 5.06426 18.7648L5.06265 18.7664Z" fill="#EF6D73"/>
<path d="M4.26954 18.7141C4.22611 18.7682 4.04915 18.7634 4.03145 18.6935C3.9848 17.9494 4.01215 17.2021 3.98641 16.4581C3.9108 14.1925 3.86575 11.9539 4.03306 9.68678C4.04432 9.53574 3.95745 9.02856 4.15693 9.02856C4.29046 9.02856 4.3178 9.24797 4.32906 9.34654C4.38376 9.8251 4.36285 10.5358 4.38054 11.0493C4.45133 13.0796 4.38859 15.0224 4.32746 17.0432C4.31941 17.3309 4.38376 18.5694 4.26954 18.7141Z" fill="#EF6D73"/>
<path d="M26.9589 20.3818V23.2071H28.315C28.4678 23.3899 28.3568 23.7063 28.389 23.9384H26.2205V20.3818H26.9605H26.9589Z" fill="#EF6D73"/>
<path d="M3.37025 9.224C3.50377 9.19697 3.53433 9.59762 3.54077 9.68666C3.61316 10.5627 3.57133 11.5754 3.58903 12.4658C3.62603 14.2878 3.6759 16.2465 3.54399 18.0685C3.53755 18.1575 3.49251 18.563 3.41851 18.5773L3.27211 18.4787C3.21259 17.6488 3.22707 16.803 3.19972 15.9683C3.14181 14.2083 3.12411 12.5214 3.1949 10.7551C3.21098 10.3735 3.19811 9.78205 3.24316 9.43864C3.25764 9.3337 3.28016 9.28442 3.37025 9.22241V9.224Z" fill="#EF6D73"/>
<path d="M2.50636 18.237C2.42753 17.7108 2.48062 17.1813 2.4581 16.6519C2.38731 14.903 2.33422 13.2464 2.40501 11.4864C2.42753 10.8997 2.42592 10.2669 2.50797 9.68664C2.51762 9.61509 2.46131 9.54514 2.58036 9.56422C2.72997 9.58807 2.74606 10.0634 2.75571 10.2208C2.87797 12.3576 2.83614 14.4785 2.75571 16.6058C2.7364 17.0955 2.78949 17.6329 2.70584 18.1162C2.68492 18.237 2.6254 18.2513 2.50957 18.237H2.50636Z" fill="#EF6D73"/>
<path d="M1.9144 10.1001C1.96105 10.5771 1.94175 11.0588 1.96427 11.5374C2.05275 13.3991 2.07366 15.1718 1.96427 17.0431C1.95623 17.1814 1.93692 17.4565 1.91601 17.5789C1.88384 17.7633 1.73905 17.7411 1.71653 17.5328C1.69562 17.3372 1.67792 17.0527 1.66827 16.8507C1.6007 15.5311 1.58783 14.2195 1.62322 12.9046C1.64736 11.9682 1.68114 11.0349 1.71975 10.1001H1.91601H1.9144Z" fill="#EF6D73"/>
<path d="M1.12611 10.9283C1.17598 12.1414 1.29663 13.3466 1.27572 14.5596C1.14863 15.2751 1.24676 16.0907 1.12611 16.7982C1.09393 16.9826 0.950758 16.9604 0.926627 16.7521C0.820452 15.8125 0.888018 14.7743 0.778625 13.8235L0.974889 10.9474L1.12611 10.9268V10.9283Z" fill="#EF6D73"/>
<path d="M0.336221 12C0.506745 13.2719 0.50031 14.4802 0.336221 15.7521H0.18822L0 13.8761L0.18822 12H0.336221Z" fill="#EF6D73"/>
</svg>
