<svg width="38" height="38" viewBox="0 0 38 38" fill="none" xmlns="http://www.w3.org/2000/svg">
<path d="M19.5837 0.0104805C31.1384 0.41293 39.7128 10.8738 37.7083 22.3269C35.9582 32.3238 26.5534 39.1739 16.4581 37.8324C8.28345 36.748 1.64923 30.3647 0.273737 22.2374C-1.6581 10.8151 6.87162 0.424109 18.3983 0.0104805C18.7786 -0.00349349 19.2063 -0.00349349 19.5865 0.0104805H19.5837ZM6.38796 14.2108C7.32732 15.1582 8.54904 14.507 9.64217 14.2667C15.3985 12.9979 23.2629 13.5177 28.6474 16.0079C29.2597 16.2901 30.4283 17.0727 31.0238 17.1034C32.3965 17.1733 33.3414 15.7759 32.7375 14.5294C32.4049 13.8419 31.2251 13.3081 30.5457 12.9811C24.2749 9.95434 15.2336 9.30315 8.49033 10.8906C7.95076 11.0164 7.10366 11.1868 6.65355 11.4859C5.73656 12.0951 5.61634 13.4311 6.38796 14.2108ZM14.7919 16.6115C12.7566 16.6814 10.3495 16.9748 8.41205 17.6037C6.26774 18.2968 7.15398 20.8596 8.94324 20.5382C9.59464 20.4208 10.3187 20.1525 11.0037 20.0184C16.1226 19.0039 22.1334 19.6746 26.7967 22.0418C27.2943 22.2933 28.1386 22.897 28.653 22.9445C29.3855 23.0088 30.1627 22.4331 30.2382 21.6869C30.35 20.5801 29.6623 20.2336 28.8347 19.7696C24.6887 17.4444 19.5306 16.4578 14.7919 16.6171V16.6115ZM14.9792 22.802C13.0222 22.9781 10.7577 23.0815 8.87055 23.6376C7.47269 24.0513 7.73549 25.9349 9.15012 25.9964C14.4508 24.7388 20.2491 24.6549 25.164 27.2569C25.505 27.4385 26.1453 27.8969 26.4919 27.9472C27.5655 28.1037 28.3007 26.9299 27.6382 26.0579C27.4117 25.7589 26.8805 25.4934 26.5478 25.3089C23.6571 23.7019 20.3469 22.9417 17.048 22.7908L14.9792 22.802Z" fill="#EF6D73"/>
</svg>
