<svg width="328" height="146" viewBox="0 0 328 146" fill="none" xmlns="http://www.w3.org/2000/svg">
<path fill-rule="evenodd" clip-rule="evenodd" d="M158.499 141.132H105.196L120.832 68.0794H174.134L158.499 141.132ZM131.159 122.879H140.349L148.17 86.3332H138.98L131.159 122.879ZM199.278 15.0764H190.17L193.397 0H229.831L226.604 15.0764H217.496L207.815 60.3057H189.598L199.278 15.0764ZM224.062 141.095L239.69 68.0794H261.747L261.736 68.1305L271.3 94.169L292.05 68.0794L292.141 68.1281L292.152 68.0794H314.209L298.581 141.095H276.524L281.771 116.581L280.24 118.507L280.263 118.569L260.882 142.846L251.891 118.569L251.941 118.507L251.316 116.807L246.119 141.095H224.062ZM7.03962 113.105L16.677 68.0794H114.092L109.925 87.5501H98.8967L87.436 141.095H65.3797L76.8404 87.5501H34.5659L33.0036 94.8516H64.2499L57.1196 128.165L0 146L5.63418 119.672L31.7157 113.105H7.03962ZM36.3487 41.6065L45.2472 0.0304527H63.4633L50.5567 60.3361H32.3394L7.46117 53.3157L15.9173 35.8408L36.3487 41.6065ZM75.3589 60.3057H57.1417L70.0483 0H88.2655L79.367 41.5761L86.3197 39.8249L94.8444 0H113.06L105.575 34.978L112.527 33.2268L119.639 0H162.651L153.981 40.5137H153.97L127.773 47.1094L124.949 60.3057H106.733L108.519 51.9576L75.3589 60.3057ZM134.629 15.0764L131.783 28.3798L138.735 26.6287L141.208 15.0764H134.629ZM222.49 60.3057L235.397 0H279.421L276.195 15.0764H250.388L249.097 21.1063H258.318L255.091 36.1827H245.87L244.709 41.6065L277.87 33.2572L284.988 0H328L319.329 40.5137H319.31L319.311 40.5441L314.832 41.6722L315.872 60.3057H297.012L296.234 46.3549L293.116 47.1398L290.297 60.3057H272.081L273.862 51.9868L240.7 60.3361L240.699 60.3057H222.49ZM299.978 15.0764L297.125 28.4102L304.078 26.6591L306.556 15.0764H299.978ZM190.714 125.154L187.302 141.095H165.246L180.874 68.0794H232.951L222.452 117.132H222.444L222.445 117.165L217.008 118.534L218.266 141.095H195.432L194.49 124.204L190.714 125.154ZM199.022 86.3332L195.568 102.477L203.986 100.357L206.987 86.3332H199.022ZM169.223 0.0304527H187.44L174.534 60.3361H156.316L169.223 0.0304527Z" fill="white"/>
</svg>
