<svg width="490" height="218" viewBox="0 0 490 218" fill="none" xmlns="http://www.w3.org/2000/svg">
<path fill-rule="evenodd" clip-rule="evenodd" d="M236.782 210.732H157.153L180.511 101.653H260.14L236.782 210.732ZM195.938 183.476H209.668L221.352 128.908H207.623L195.938 183.476ZM297.703 22.5114H284.096L288.916 0H343.345L338.524 22.5114H324.917L310.456 90.0455H283.241L297.703 22.5114ZM334.727 210.675L358.074 101.653H391.024L391.007 101.729L405.295 140.608L436.293 101.653L436.431 101.725L436.447 101.653H469.397L446.05 210.675H413.1L420.939 174.073L418.651 176.949L418.686 177.042L389.732 213.29L376.301 177.042L376.376 176.949L375.442 174.411L367.677 210.675H334.727ZM10.5165 168.883L24.9138 101.653H170.443L164.217 130.725H147.742L130.621 210.675H97.6709L114.792 130.725H51.638L49.3041 141.628H95.9831L85.3312 191.369L0 218L8.41691 178.688L47.3801 168.883H10.5165ZM54.3015 62.1248L67.5949 0.0454705H94.8079L75.5267 90.091H48.3119L11.1463 79.6084L23.7789 53.5157L54.3015 62.1248ZM112.579 90.0455H85.3641L104.645 0H131.86L118.567 62.0794L128.953 59.4646L141.688 0H168.901L157.718 52.2273L168.105 49.6126L178.73 0H242.985L230.033 60.4931H230.016L190.881 70.3415L186.661 90.0455H159.448L162.117 77.5806L112.579 90.0455ZM201.123 22.5114L196.87 42.3753L207.257 39.7606L210.951 22.5114H201.123ZM332.379 90.0455L351.66 0H417.428L412.608 22.5114H374.055L372.127 31.5149H385.902L381.08 54.0262H367.306L365.572 62.1248L415.11 49.658L425.744 0H490L477.047 60.4931H477.018L477.02 60.5385L470.329 62.2229L471.881 90.0455H443.707L442.545 69.2149L437.886 70.3869L433.676 90.0455H406.463L409.123 77.6242L359.582 90.091L359.581 90.0455H332.379ZM448.137 22.5114L443.876 42.4207L454.262 39.806L457.965 22.5114H448.137ZM284.909 186.874L279.811 210.675H246.861L270.208 101.653H348.006L332.322 174.896H332.309L332.311 174.945L324.189 176.989L326.069 210.675H291.956L290.549 185.455L284.909 186.874ZM297.32 128.908L292.16 153.013L304.736 149.848L309.218 128.908H297.32ZM252.803 0.0454705H280.018L260.736 90.091H233.522L252.803 0.0454705Z" fill="url(#paint0_radial_14_119)"/>
<defs>
<radialGradient id="paint0_radial_14_119" cx="0" cy="0" r="1" gradientUnits="userSpaceOnUse" gradientTransform="translate(256.1 82.1995) scale(203.61 202.108)">
<stop/>
<stop offset="1" stop-color="#60000E"/>
</radialGradient>
</defs>
</svg>
